<svg width="1200" height="630" viewBox="0 0 1200 630" fill="none" xmlns="http://www.w3.org/2000/svg">
  <defs>
    <linearGradient id="bg" x1="80" y1="40" x2="1120" y2="590" gradientUnits="userSpaceOnUse">
      <stop stop-color="#0B0B0F"/>
      <stop offset="1" stop-color="#1C1C24"/>
    </linearGradient>
    <linearGradient id="accent" x1="164" y1="124" x2="966" y2="530" gradientUnits="userSpaceOnUse">
      <stop stop-color="#FF7A1A"/>
      <stop offset="1" stop-color="#FF4D00"/>
    </linearGradient>
    <filter id="glow" x="0" y="0" width="1200" height="630" filterUnits="userSpaceOnUse" color-interpolation-filters="sRGB">
      <feGaussianBlur stdDeviation="50" result="blur"/>
      <feColorMatrix in="blur" type="matrix" values="1 0 0 0 0  0 0.45 0 0 0  0 0 0 0 0  0 0 0 0.45 0" result="glow"/>
      <feBlend in="SourceGraphic" in2="glow" mode="screen"/>
    </filter>
  </defs>

  <rect width="1200" height="630" rx="32" fill="url(#bg)"/>
  <circle cx="1020" cy="120" r="170" fill="#FF6321" opacity="0.10"/>
  <circle cx="150" cy="560" r="220" fill="#FF6321" opacity="0.10"/>
  <rect x="62" y="58" width="1076" height="514" rx="30" fill="white" fill-opacity="0.03" stroke="white" stroke-opacity="0.08"/>

  <g filter="url(#glow)">
    <path d="M770 170C835 148 903 148 955 169C995 185 1020 210 1029 241C1038 271 1030 302 1004 328C978 354 936 374 881 391C827 408 767 422 709 441C650 459 594 482 553 514L519 474C556 435 606 407 661 386C717 364 777 349 832 333C886 317 928 300 951 281C973 263 977 245 970 228C963 212 946 198 917 186C876 168 820 167 766 186L770 170Z" fill="url(#accent)"/>
    <rect x="706" y="192" width="208" height="220" rx="34" fill="#FF6321"/>
    <rect x="734" y="220" width="152" height="164" rx="24" fill="#111318"/>
    <text x="810" y="285" text-anchor="middle" fill="#FF6321" font-family="Arial, Helvetica, sans-serif" font-size="64" font-weight="800">L7</text>
    <text x="810" y="325" text-anchor="middle" fill="#FFFFFF" font-family="Arial, Helvetica, sans-serif" font-size="18" font-weight="700" letter-spacing="4">FITNESS</text>
    <rect x="736" y="350" width="148" height="12" rx="6" fill="#2A2D35"/>
  </g>

  <rect x="100" y="96" width="178" height="46" rx="23" fill="#FF6321"/>
  <text x="189" y="126" text-anchor="middle" fill="#FFFFFF" font-family="Arial, Helvetica, sans-serif" font-size="22" font-weight="800" letter-spacing="1.4">L7 FITNESS</text>

  <text x="100" y="220" fill="#FFFFFF" font-family="Arial, Helvetica, sans-serif" font-size="68" font-weight="900">Garanta seus</text>
  <text x="100" y="298" fill="#FFFFFF" font-family="Arial, Helvetica, sans-serif" font-size="68" font-weight="900">suplementos com</text>
  <text x="100" y="376" fill="#FF6321" font-family="Arial, Helvetica, sans-serif" font-size="74" font-weight="900">frete rápido e oferta forte</text>

  <text x="100" y="446" fill="#D1D5DB" font-family="Arial, Helvetica, sans-serif" font-size="28" font-weight="500">Emagrecedores premium, parcelamento em até 12x e atendimento direto no WhatsApp.</text>

  <rect x="100" y="486" width="380" height="64" rx="32" fill="#FF6321"/>
  <text x="290" y="527" text-anchor="middle" fill="#FFFFFF" font-family="Arial, Helvetica, sans-serif" font-size="30" font-weight="900">COMPRE AGORA</text>

  <text x="100" y="586" fill="#9CA3AF" font-family="Arial, Helvetica, sans-serif" font-size="20" font-weight="700" letter-spacing="2">www.l7fitness.com.br</text>
</svg>
